<?xml version="1.0" encoding="UTF-8"?>
<!DOCTYPE svg PUBLIC "-//W3C//DTD SVG 1.1//EN" "http://www.w3.org/Graphics/SVG/1.1/DTD/svg11.dtd">
<svg xmlns="http://www.w3.org/2000/svg" version="1.1" width="800px" height="420px" style="shape-rendering:geometricPrecision; text-rendering:geometricPrecision; image-rendering:optimizeQuality; fill-rule:evenodd; clip-rule:evenodd" xmlns:xlink="http://www.w3.org/1999/xlink">
<g><path style="opacity:0.934" fill="#185fa6" d="M 430.5,108.5 C 436.71,108.686 440.877,111.686 443,117.5C 443.792,133.839 444.625,150.173 445.5,166.5C 450.069,164.481 454.903,163.148 460,162.5C 479.798,165.299 492.465,176.299 498,195.5C 501.311,213.686 502.311,232.019 501,250.5C 495.519,263.982 487.186,265.982 476,256.5C 475.529,254.754 474.862,253.087 474,251.5C 473.977,235.097 472.977,218.763 471,202.5C 469.792,196.29 466.126,192.29 460,190.5C 458.739,190.759 457.739,191.426 457,192.5C 456.333,195.167 455.667,197.833 455,200.5C 453.821,216.472 453.154,232.472 453,248.5C 450.641,253.533 447.474,258.033 443.5,262C 434.573,265.583 428.073,263.083 424,254.5C 421.612,208.858 420.278,163.191 420,117.5C 421.859,112.467 425.359,109.467 430.5,108.5 Z"/></g>
<g><path style="opacity:0.925" fill="#185fa6" d="M 102.5,254.5 C 101.833,251.833 101.167,251.833 100.5,254.5C 99.8333,254.5 99.5,254.833 99.5,255.5C 98.8333,255.5 98.5,255.833 98.5,256.5C 96.4471,256.402 94.7804,257.069 93.5,258.5C 89.8687,258.968 86.5354,258.301 83.5,256.5C 67.1106,264.164 51.4439,262.997 36.5,253C 26.2535,241.307 24.7535,228.473 32,214.5C 37.8814,207.309 45.3814,202.476 54.5,200C 62.1052,198.689 69.7718,198.189 77.5,198.5C 78.1401,185.982 72.3068,179.315 60,178.5C 50.4914,179.92 40.9914,180.253 31.5,179.5C 31.5,178.833 31.1667,178.5 30.5,178.5C 29.3077,176.887 28.3077,175.22 27.5,173.5C 27.5,173.167 27.5,172.833 27.5,172.5C 26.6276,167.553 27.9609,163.387 31.5,160C 45.9532,155.544 60.6199,154.544 75.5,157C 86.9361,160.77 94.7694,168.27 99,179.5C 100.961,184.677 102.294,190.01 103,195.5C 104.321,207.832 104.488,220.165 103.5,232.5C 103.39,237.726 104.39,242.726 106.5,247.5C 105.9,250.349 104.567,252.682 102.5,254.5 Z M 68.5,221.5 C 71.909,221.249 75.2423,221.583 78.5,222.5C 80.0063,225.941 79.6729,229.108 77.5,232C 72.3733,233.407 67.2067,234.574 62,235.5C 58.5594,235.687 55.5594,234.687 53,232.5C 52.0799,229.692 52.9133,227.525 55.5,226C 59.7146,223.763 64.048,222.263 68.5,221.5 Z"/></g>
<g><path style="opacity:0.926" fill="#185fa6" d="M 126.5,155.5 C 132.508,154.694 137.508,156.527 141.5,161C 151.16,160.805 160.826,160.805 170.5,161C 177.731,162.9 183.231,167.067 187,173.5C 189.466,178.232 191.133,183.232 192,188.5C 194.552,210.123 196.219,231.79 197,253.5C 194.022,261.709 188.188,265.209 179.5,264C 172.728,261.523 168.894,256.689 168,249.5C 166.016,229.172 164.182,208.838 162.5,188.5C 156.907,188.193 151.407,188.527 146,189.5C 145.401,208.948 146.567,228.281 149.5,247.5C 147.506,260.978 140.173,265.478 127.5,261C 121.605,256.031 118.771,249.531 119,241.5C 117.736,215.843 117.403,190.176 118,164.5C 119.115,163 119.948,161.333 120.5,159.5C 122.711,158.34 124.711,157.007 126.5,155.5 Z"/></g>
<g><path style="opacity:0.921" fill="#195fa6" d="M 218.5,156.5 C 220.857,156.337 223.19,156.503 225.5,157C 228.972,158.975 232.305,161.142 235.5,163.5C 266.073,156.251 282.239,168.251 284,199.5C 286.41,217.775 287.744,236.109 288,254.5C 284.8,263.026 278.634,266.526 269.5,265C 264.269,262.768 260.769,258.935 259,253.5C 256.651,232.545 254.817,211.545 253.5,190.5C 247.788,190.313 242.121,190.646 236.5,191.5C 236.893,212.248 238.06,232.914 240,253.5C 233.249,266.005 224.583,267.671 214,258.5C 211.225,253.544 209.892,248.21 210,242.5C 208.722,217.177 208.389,191.843 209,166.5C 210.115,165 210.948,163.333 211.5,161.5C 213.809,159.647 216.142,157.98 218.5,156.5 Z"/></g>
<g><path style="opacity:0.93" fill="#185fa6" d="M 321.5,157.5 C 332.563,156.474 343.23,157.974 353.5,162C 366.583,173.341 373.416,187.841 374,205.5C 374.667,219.833 374.667,234.167 374,248.5C 371.013,258.91 364.513,262.243 354.5,258.5C 341.818,264.057 328.818,264.89 315.5,261C 295.615,249.362 291.782,233.862 304,214.5C 310.939,207.78 319.105,203.28 328.5,201C 334.833,200.667 341.167,200.333 347.5,200C 346.577,195.476 345.41,190.976 344,186.5C 340.498,182.111 335.831,180.111 330,180.5C 323.176,181.249 316.343,181.916 309.5,182.5C 300.705,182.54 296.539,178.207 297,169.5C 298.031,166.461 299.865,163.961 302.5,162C 308.85,160.061 315.183,158.561 321.5,157.5 Z M 341.5,223.5 C 343.861,223.674 346.194,224.007 348.5,224.5C 348.817,227.572 348.484,230.572 347.5,233.5C 342.215,235.893 336.715,237.56 331,238.5C 320.654,236.724 319.488,232.89 327.5,227C 332.184,225.347 336.85,224.181 341.5,223.5 Z"/></g>
<g><path style="opacity:0.004" fill="#0d0416" d="M 27.5,172.5 C 27.5,172.833 27.5,173.167 27.5,173.5C 25.8333,173.5 24.1667,173.5 22.5,173.5C 22.5,174.5 22.5,175.5 22.5,176.5C 22.1586,173.438 20.4919,171.272 17.5,170C 19.0488,168.786 20.2155,167.286 21,165.5C 20.6393,170.303 22.806,172.637 27.5,172.5 Z"/></g>
<g><path style="opacity:0.923" fill="#185fa6" d="M 727.5,165.5 C 747.927,164.12 762.094,172.786 770,191.5C 773.27,201.493 771.603,210.493 765,218.5C 759.3,223.401 752.633,225.734 745,225.5C 734.434,224.345 723.934,224.012 713.5,224.5C 713.596,233.592 718.262,237.925 727.5,237.5C 737.22,235.982 746.554,233.149 755.5,229C 766.179,228.013 771.345,232.847 771,243.5C 770.043,246.022 768.543,248.189 766.5,250C 750.363,261.094 732.697,264.761 713.5,261C 696.029,253.505 687.362,240.172 687.5,221C 688.336,193.056 701.67,174.556 727.5,165.5 Z M 731.5,190.5 C 739.994,189.852 745.327,193.518 747.5,201.5C 737.441,201.411 727.441,201.577 717.5,202C 720.908,196.485 725.575,192.651 731.5,190.5 Z"/></g>
<g><path style="opacity:0.922" fill="#185ea6" d="M 538.5,167.5 C 543.511,167.334 548.511,167.501 553.5,168C 560.91,170.872 567.91,174.539 574.5,179C 585.09,193.442 589.59,209.609 588,227.5C 581.094,257.196 562.927,268.363 533.5,261C 522.859,255.354 515.359,246.854 511,235.5C 504.079,212.364 508.579,191.864 524.5,174C 529.022,171.335 533.689,169.169 538.5,167.5 Z M 542.5,194.5 C 546.361,196.685 550.194,199.019 554,201.5C 558.362,210.151 559.362,219.151 557,228.5C 552.359,235.649 546.859,236.316 540.5,230.5C 538.52,228.205 537.353,225.539 537,222.5C 535.95,214.337 536.617,206.337 539,198.5C 540.376,197.295 541.542,195.962 542.5,194.5 Z"/></g>
<g><path style="opacity:0.004" fill="#1514ff" d="M 27.5,173.5 C 28.3077,175.22 29.3077,176.887 30.5,178.5C 27.2376,180.179 24.5709,179.512 22.5,176.5C 22.5,175.5 22.5,174.5 22.5,173.5C 24.1667,173.5 25.8333,173.5 27.5,173.5 Z"/></g>
<g><path style="opacity:0.933" fill="#185fa6" d="M 624.5,172.5 C 638.163,170.916 650.83,173.749 662.5,181C 683.883,200.506 686.049,222.006 669,245.5C 658.97,256.459 646.47,261.459 631.5,260.5C 631.372,271.128 632.372,281.628 634.5,292C 634.209,299.617 630.542,304.617 623.5,307C 620.041,307.617 616.708,308.283 613.5,309C 608.893,304.399 606.06,298.899 605,292.5C 603.535,267.521 602.202,242.521 601,217.5C 600.333,207.833 600.333,198.167 601,188.5C 602.123,185.751 603.623,183.251 605.5,181C 611.667,177.579 618,174.746 624.5,172.5 Z M 627.5,199.5 C 634.46,199.425 641.127,200.759 647.5,203.5C 651.773,209.635 652.606,216.302 650,223.5C 645.111,230.888 638.278,233.554 629.5,231.5C 628.868,220.83 628.202,210.163 627.5,199.5 Z"/></g>
<g><path style="opacity:0.004" fill="#000000" d="M 22.5,176.5 C 24.5709,179.512 27.2376,180.179 30.5,178.5C 31.1667,178.5 31.5,178.833 31.5,179.5C 30.6314,181.717 30.298,184.05 30.5,186.5C 25.282,185.276 22.6153,181.942 22.5,176.5 Z"/></g>
<g><path style="opacity:0.004" fill="#25109d" d="M 389.5,215.5 C 391.609,216.052 392.442,217.386 392,219.5C 390.519,218.529 389.685,217.196 389.5,215.5 Z"/></g>
<g><path style="opacity:0.004" fill="#0000f0" d="M 102.5,254.5 C 102.5,255.167 102.167,255.5 101.5,255.5C 101.5,254.833 101.167,254.5 100.5,254.5C 101.167,251.833 101.833,251.833 102.5,254.5 Z"/></g>
<g><path style="opacity:0.004" fill="#000000" d="M 100.5,254.5 C 101.167,254.5 101.5,254.833 101.5,255.5C 100.594,257.914 98.9278,258.747 96.5,258C 97.4158,257.722 98.0825,257.222 98.5,256.5C 99.1667,256.5 99.5,256.167 99.5,255.5C 99.5,254.833 99.8333,254.5 100.5,254.5 Z"/></g>
<g><path style="opacity:0.004" fill="#000000" d="M 93.5,258.5 C 94.2389,258.369 94.9056,258.536 95.5,259C 94.5632,259.692 93.8966,259.525 93.5,258.5 Z"/></g>
</svg>
