<?xml version="1.0" encoding="UTF-8"?>
<!DOCTYPE svg PUBLIC "-//W3C//DTD SVG 1.1//EN" "http://www.w3.org/Graphics/SVG/1.1/DTD/svg11.dtd">
<svg xmlns="http://www.w3.org/2000/svg" version="1.1" width="400px" height="400px" style="shape-rendering:geometricPrecision; text-rendering:geometricPrecision; image-rendering:optimizeQuality; fill-rule:evenodd; clip-rule:evenodd" xmlns:xlink="http://www.w3.org/1999/xlink">
<g><path style="opacity:0.956" fill="#0363ad" d="M 264.5,165.5 C 263.516,167.598 263.849,169.598 265.5,171.5C 266.86,187.518 268.193,203.518 269.5,219.5C 268.683,217.031 268.183,214.365 268,211.5C 267.181,217.681 267.347,223.681 268.5,229.5C 266.964,241.227 267.297,252.894 269.5,264.5C 267.962,267.887 266.128,271.22 264,274.5C 263.503,277.146 263.336,279.813 263.5,282.5C 262.167,283.167 261.167,284.167 260.5,285.5C 259.833,286.5 259.167,287.5 258.5,288.5C 257.833,288.5 257.5,288.833 257.5,289.5C 254.402,290.216 251.402,291.216 248.5,292.5C 246.052,291.527 243.385,291.194 240.5,291.5C 238.035,291.233 235.701,290.566 233.5,289.5C 232.377,288.243 231.711,288.576 231.5,290.5C 225.607,291.577 219.941,293.244 214.5,295.5C 215.604,293.404 214.77,292.404 212,292.5C 206.708,294.485 201.375,296.151 196,297.5C 194.482,297.943 193.315,297.276 192.5,295.5C 191.289,296.39 189.955,296.39 188.5,295.5C 184.787,296.778 181.12,297.778 177.5,298.5C 171.491,298.518 166.158,296.851 161.5,293.5C 162.043,293.44 162.376,293.107 162.5,292.5C 159.384,291.197 156.551,289.53 154,287.5C 153.667,287.833 153.333,288.167 153,288.5C 151.876,284.658 150.043,283.992 147.5,286.5C 146.118,285.199 144.452,284.366 142.5,284C 139.384,279.547 135.884,275.38 132,271.5C 128.858,266.882 126.524,261.882 125,256.5C 120.629,236.018 125.462,218.352 139.5,203.5C 139.435,203.938 139.601,204.272 140,204.5C 141.833,202.667 143.667,200.833 145.5,199C 145.272,198.601 144.938,198.435 144.5,198.5C 147.299,196.597 150.299,194.931 153.5,193.5C 155.027,193.573 156.027,192.906 156.5,191.5C 165.501,186.071 175.167,182.571 185.5,181C 196.495,180.5 207.495,180.333 218.5,180.5C 217.565,172.296 215.732,164.296 213,156.5C 209.571,152.561 205.737,149.228 201.5,146.5C 200.779,144.618 199.779,144.285 198.5,145.5C 181.205,144.48 164.039,145.48 147,148.5C 143.001,148.568 139.168,147.901 135.5,146.5C 133.78,145.692 132.113,144.692 130.5,143.5C 128.474,140.102 126.474,136.769 124.5,133.5C 124.5,133.167 124.5,132.833 124.5,132.5C 123.857,126.085 124.857,120.085 127.5,114.5C 129.817,115.534 130.817,114.534 130.5,111.5C 131.239,111.631 131.906,111.464 132.5,111C 133.738,110.31 133.738,109.81 132.5,109.5C 135.024,108.26 137.691,107.093 140.5,106C 156.544,102.19 172.877,100.023 189.5,99.5C 212.956,99.0554 232.456,107.389 248,124.5C 256.201,136.927 261.701,150.594 264.5,165.5 Z M 201.5,247.5 C 192.908,250.101 184.241,250.101 175.5,247.5C 175.167,246.5 174.5,245.833 173.5,245.5C 171.199,242.698 171.032,239.698 173,236.5C 175.249,233.629 178.082,231.629 181.5,230.5C 183.027,230.573 184.027,229.906 184.5,228.5C 185.167,228.5 185.833,228.5 186.5,228.5C 188.38,228.771 189.713,228.104 190.5,226.5C 200.791,224.483 211.124,224.149 221.5,225.5C 221.828,230.875 221.495,236.208 220.5,241.5C 214.462,244.263 208.129,246.263 201.5,247.5 Z"/></g>
<g><path style="opacity:0.006" fill="#0000ff" d="M 132.5,109.5 C 133.738,109.81 133.738,110.31 132.5,111C 131.906,111.464 131.239,111.631 130.5,111.5C 130.833,110.5 131.5,109.833 132.5,109.5 Z"/></g>
<g><path style="opacity:0.006" fill="#2317d4" d="M 130.5,111.5 C 130.817,114.534 129.817,115.534 127.5,114.5C 128.167,113.167 129.167,112.167 130.5,111.5 Z"/></g>
<g><path style="opacity:0.004" fill="#020004" d="M 124.5,132.5 C 124.5,132.833 124.5,133.167 124.5,133.5C 121.713,134.477 118.713,134.81 115.5,134.5C 115.987,145.47 120.987,148.47 130.5,143.5C 132.113,144.692 133.78,145.692 135.5,146.5C 134.07,146.421 132.736,146.754 131.5,147.5C 130.511,151.107 130.177,154.774 130.5,158.5C 128.833,158.5 127.167,158.5 125.5,158.5C 125.649,157.448 125.483,156.448 125,155.5C 122.132,154.639 119.798,152.972 118,150.5C 115.946,144.538 114.279,138.538 113,132.5C 111.363,130.19 109.196,128.69 106.5,128C 109.462,125.713 111.629,122.88 113,119.5C 112.828,124.349 114.328,128.516 117.5,132C 119.81,132.497 122.143,132.663 124.5,132.5 Z"/></g>
<g><path style="opacity:0.004" fill="#0e0dff" d="M 124.5,133.5 C 126.474,136.769 128.474,140.102 130.5,143.5C 120.987,148.47 115.987,145.47 115.5,134.5C 118.713,134.81 121.713,134.477 124.5,133.5 Z"/></g>
<g><path style="opacity:0.006" fill="#200cc6" d="M 198.5,145.5 C 199.779,144.285 200.779,144.618 201.5,146.5C 200.391,146.443 199.391,146.11 198.5,145.5 Z"/></g>
<g><path style="opacity:0.006" fill="#17dbdb" d="M 264.5,165.5 C 265.461,167.265 265.795,169.265 265.5,171.5C 263.849,169.598 263.516,167.598 264.5,165.5 Z"/></g>
<g><path style="opacity:0.005" fill="#0000ff" d="M 156.5,191.5 C 156.027,192.906 155.027,193.573 153.5,193.5C 153.973,192.094 154.973,191.427 156.5,191.5 Z"/></g>
<g><path style="opacity:0.008" fill="#240fa7" d="M 144.5,198.5 C 144.938,198.435 145.272,198.601 145.5,199C 143.667,200.833 141.833,202.667 140,204.5C 139.601,204.272 139.435,203.938 139.5,203.5C 140.833,201.5 142.5,199.833 144.5,198.5 Z"/></g>
<g><path style="opacity:0.007" fill="#3ecfec" d="M 269.5,219.5 C 269.747,222.939 269.414,226.272 268.5,229.5C 267.347,223.681 267.181,217.681 268,211.5C 268.183,214.365 268.683,217.031 269.5,219.5 Z"/></g>
<g><path style="opacity:0.006" fill="#1606e4" d="M 190.5,226.5 C 189.713,228.104 188.38,228.771 186.5,228.5C 187.514,227.326 188.847,226.66 190.5,226.5 Z"/></g>
<g><path style="opacity:0.005" fill="#0000ff" d="M 184.5,228.5 C 184.027,229.906 183.027,230.573 181.5,230.5C 181.973,229.094 182.973,228.427 184.5,228.5 Z"/></g>
<g><path style="opacity:0.006" fill="#1511f6" d="M 173.5,245.5 C 174.5,245.833 175.167,246.5 175.5,247.5C 174.325,247.719 173.325,247.386 172.5,246.5C 172.624,245.893 172.957,245.56 173.5,245.5 Z"/></g>
<g><path style="opacity:0.108" fill="#2179ac" d="M 175.5,247.5 C 184.241,250.101 192.908,250.101 201.5,247.5C 201.063,249.074 200.063,250.241 198.5,251C 198.833,251.333 199.167,251.667 199.5,252C 194.261,254.14 189.094,253.974 184,251.5C 182.175,251.943 180.342,252.277 178.5,252.5C 178.69,250.041 177.69,248.374 175.5,247.5 Z"/></g>
<g><path style="opacity:0.02" fill="#2a96c3" d="M 269.5,264.5 C 270.59,267.267 271.59,270.101 272.5,273C 272.192,274.459 271.525,275.626 270.5,276.5C 269.414,276.62 268.747,277.287 268.5,278.5C 268.543,279.416 268.876,280.083 269.5,280.5C 269.672,281.492 269.338,282.158 268.5,282.5C 268.565,282.062 268.399,281.728 268,281.5C 266.961,282.244 266.461,283.244 266.5,284.5C 266.5,285.167 266.167,285.5 265.5,285.5C 265.715,283.821 265.048,282.821 263.5,282.5C 263.336,279.813 263.503,277.146 264,274.5C 266.128,271.22 267.962,267.887 269.5,264.5 Z"/></g>
<g><path style="opacity:0.006" fill="#0000ff" d="M 270.5,276.5 C 270.567,277.959 270.234,279.292 269.5,280.5C 268.876,280.083 268.543,279.416 268.5,278.5C 268.747,277.287 269.414,276.62 270.5,276.5 Z"/></g>
<g><path style="opacity:0.004" fill="#0000ff" d="M 268.5,282.5 C 268.167,283.5 267.5,284.167 266.5,284.5C 266.461,283.244 266.961,282.244 268,281.5C 268.399,281.728 268.565,282.062 268.5,282.5 Z"/></g>
<g><path style="opacity:0.005" fill="#0000ff" d="M 263.5,282.5 C 265.048,282.821 265.715,283.821 265.5,285.5C 265.167,286.5 264.5,287.167 263.5,287.5C 263.027,286.094 262.027,285.427 260.5,285.5C 261.167,284.167 262.167,283.167 263.5,282.5 Z"/></g>
<g><path style="opacity:0.125" fill="#1980a5" d="M 161.5,293.5 C 156.247,292.207 151.581,289.874 147.5,286.5C 150.043,283.992 151.876,284.658 153,288.5C 153.333,288.167 153.667,287.833 154,287.5C 156.551,289.53 159.384,291.197 162.5,292.5C 162.376,293.107 162.043,293.44 161.5,293.5 Z"/></g>
<g><path style="opacity:0.004" fill="#000000" d="M 260.5,285.5 C 262.027,285.427 263.027,286.094 263.5,287.5C 261.541,291.534 258.541,293.201 254.5,292.5C 255.993,291.859 256.993,290.859 257.5,289.5C 259.224,289.539 259.557,289.206 258.5,288.5C 259.167,287.5 259.833,286.5 260.5,285.5 Z"/></g>
<g><path style="opacity:0.005" fill="#0000ff" d="M 233.5,289.5 C 233.167,290.167 232.833,290.833 232.5,291.5C 231.833,291.5 231.5,291.167 231.5,290.5C 231.711,288.576 232.377,288.243 233.5,289.5 Z"/></g>
<g><path style="opacity:0.004" fill="#000000" d="M 233.5,289.5 C 235.701,290.566 238.035,291.233 240.5,291.5C 240.833,292.167 241.167,292.833 241.5,293.5C 238.162,293.935 235.162,293.268 232.5,291.5C 232.833,290.833 233.167,290.167 233.5,289.5 Z"/></g>
<g><path style="opacity:0.006" fill="#1104ed" d="M 240.5,291.5 C 243.385,291.194 246.052,291.527 248.5,292.5C 248.5,292.833 248.5,293.167 248.5,293.5C 246.167,293.5 243.833,293.5 241.5,293.5C 241.167,292.833 240.833,292.167 240.5,291.5 Z"/></g>
<g><path style="opacity:0.004" fill="#000000" d="M 248.5,293.5 C 249.552,293.351 250.552,293.517 251.5,294C 250.251,294.74 249.251,294.573 248.5,293.5 Z"/></g>
<g><path style="opacity:0.063" fill="#2a89d6" d="M 214.5,295.5 C 202.271,299.37 189.938,300.37 177.5,298.5C 181.12,297.778 184.787,296.778 188.5,295.5C 189.955,296.39 191.289,296.39 192.5,295.5C 193.315,297.276 194.482,297.943 196,297.5C 201.375,296.151 206.708,294.485 212,292.5C 214.77,292.404 215.604,293.404 214.5,295.5 Z"/></g>
</svg>
